#define nowifi_width 18
#define nowifi_height 13
static unsigned char nowifi_bits[] = {
   0x30, 0x30, 0x00, 0x70, 0x38, 0x00, 0xe0, 0x1c, 0x00, 0xc0, 0x0f, 0x00,
   0x80, 0x07, 0x00, 0x80, 0x07, 0x00, 0xc0, 0x0f, 0x00, 0xe0, 0x1c, 0x00,
   0x70, 0x38, 0x00, 0x30, 0x33, 0x00, 0x80, 0x04, 0x00, 0x80, 0x04, 0x00,
   0x00, 0x03, 0x00 };
