#define wifi1_mask_width 18
#define wifi1_mask_height 13
static unsigned char wifi1_mask_bits[] = {
   0x00, 0x00, 0x00, 0x00, 0x00, 0x00, 0x00, 0x00, 0x00, 0x00, 0x00, 0x00,
   0x00, 0x00, 0x00, 0x00, 0x00, 0x00, 0x00, 0x00, 0x00, 0x00, 0x00, 0x00,
   0x00, 0x00, 0x00, 0x00, 0x03, 0x00, 0x80, 0x07, 0x00, 0x80, 0x07, 0x00,
   0x00, 0x03, 0x00 };
