#define wifi3_width 18
#define wifi3_height 13
static unsigned char wifi3_bits[] = {
   0x00, 0x00, 0x00, 0x00, 0x00, 0x00, 0x00, 0x00, 0x00, 0xc0, 0x0f, 0x00,
   0xf0, 0x3f, 0x00, 0x78, 0x78, 0x00, 0x9c, 0xe7, 0x00, 0xec, 0xdf, 0x00,
   0xe0, 0x1c, 0x00, 0x60, 0x1b, 0x00, 0x80, 0x07, 0x00, 0x80, 0x07, 0x00,
   0x00, 0x03, 0x00 };
