#define wifi4_width 18
#define wifi4_height 13
static unsigned char wifi4_bits[] = {
   0xe0, 0x1f, 0x00, 0xf8, 0x7f, 0x00, 0x3c, 0xf0, 0x00, 0xce, 0xcf, 0x01,
   0xf7, 0xbf, 0x03, 0x7b, 0x78, 0x03, 0x9c, 0xe7, 0x00, 0xec, 0xdf, 0x00,
   0xe0, 0x1c, 0x00, 0x60, 0x1b, 0x00, 0x80, 0x07, 0x00, 0x80, 0x07, 0x00,
   0x00, 0x03, 0x00 };
